<?xml version="1.0"?><svg xmlns="http://www.w3.org/2000/svg" xmlns:xlink="http://www.w3.org/1999/xlink" viewBox="336.15 72.5 155.16 83.82" preserveAspectRatio="xMidYMid" width="100%" height="100%"><clipPath id="57614"><rect x="0.3" y="0.3" width="539.4" height="719.4" /></clipPath><g id="drawing"><rect x="336.15" y="72.5" width="100%" height="100%" fill="rgb(255, 255, 255)" /><g id="page" clip-path="url(#57614)"><g><text xml:space="preserve" text-anchor="start" text-rendering="geometricPrecision"><tspan x="436.34" y="92.51" font-family="Times New Roman" font-size="8" fill="rgb(0, 0, 0)">N</tspan></text></g><g><text xml:space="preserve" text-anchor="start" text-rendering="geometricPrecision"><tspan x="462.56" y="141.93" font-family="Times New Roman" font-size="8" fill="rgb(0, 0, 0)">N</tspan></text></g><g><text xml:space="preserve" text-anchor="start" text-rendering="geometricPrecision"><tspan x="358.98" y="92.83" font-family="Times New Roman" font-size="8" fill="rgb(0, 0, 0)">O</tspan></text></g><g><text xml:space="preserve" text-anchor="middle" text-rendering="geometricPrecision"><tspan x="361.93" y="116.08" font-family="Times New Roman" font-size="8" fill="rgb(0, 0, 0)">NH</tspan></text></g><g><text xml:space="preserve" text-anchor="start" text-rendering="geometricPrecision"><tspan x="336.15" y="104.48" font-family="Times New Roman" font-size="8" fill="rgb(0, 0, 0)">O</tspan></text></g><g id="Solid"><path d="M400.26 93.86 L400.26 93.86 L400.56 94.03 L400.86 94.2 L400.83 108.35 L400.53 108.52 L400.23 108.35 Z" stroke="rgb(0, 0, 0)" stroke-width="0" fill-rule="evenodd" stroke-linejoin="miter" fill="rgb(0, 0, 0)" shape-rendering="geometricPrecision" /><line x1="403.17" y1="95.55" x2="403.14" y2="107.01" stroke="rgb(0, 0, 0)" stroke-width="0.6" shape-rendering="auto" /></g><g id="Solid"><path d="M400.53 108.87 L400.53 108.87 L400.53 108.52 L400.83 108.35 L413.08 115.39 L413.08 115.74 L413.08 116.09 Z" stroke="rgb(0, 0, 0)" stroke-width="0" fill-rule="evenodd" stroke-linejoin="miter" fill="rgb(0, 0, 0)" shape-rendering="geometricPrecision" /></g><g id="Solid"><path d="M413.08 116.09 L413.08 116.09 L413.08 115.74 L413.08 115.39 L425.32 108.23 L425.62 108.4 L425.66 108.73 Z" stroke="rgb(0, 0, 0)" stroke-width="0" fill-rule="evenodd" stroke-linejoin="miter" fill="rgb(0, 0, 0)" shape-rendering="geometricPrecision" /><line x1="413.07" y1="112.72" x2="422.99" y2="106.91" stroke="rgb(0, 0, 0)" stroke-width="0.6" shape-rendering="auto" /></g><g id="Solid"><path d="M425.53 93.61 L425.53 93.61 L425.5 93.94 L425.2 94.12 L413.04 87.26 L413.04 86.92 L413.04 86.58 Z" stroke="rgb(0, 0, 0)" stroke-width="0" fill-rule="evenodd" stroke-linejoin="miter" fill="rgb(0, 0, 0)" shape-rendering="geometricPrecision" /><line x1="422.94" y1="95.45" x2="413.05" y2="89.88" stroke="rgb(0, 0, 0)" stroke-width="0.6" shape-rendering="auto" /></g><g id="Solid"><path d="M413.04 86.58 L413.04 86.58 L413.04 86.92 L413.04 87.26 L400.86 94.2 L400.56 94.03 L400.26 93.86 Z" stroke="rgb(0, 0, 0)" stroke-width="0" fill-rule="evenodd" stroke-linejoin="miter" fill="rgb(0, 0, 0)" shape-rendering="geometricPrecision" /></g><g id="Solid"><path d="M425.2 94.12 L425.2 94.12 L425.5 93.94 L425.8 94.16 L425.92 108.18 L425.62 108.4 L425.32 108.23 Z" stroke="rgb(0, 0, 0)" stroke-width="0" fill-rule="evenodd" stroke-linejoin="miter" fill="rgb(0, 0, 0)" shape-rendering="geometricPrecision" /></g><g id="Solid"><path d="M425.66 108.73 L425.66 108.73 L425.62 108.4 L425.92 108.18 L439.31 112.44 L439.43 112.79 L439.19 113.03 Z" stroke="rgb(0, 0, 0)" stroke-width="0" fill-rule="evenodd" stroke-linejoin="miter" fill="rgb(0, 0, 0)" shape-rendering="geometricPrecision" /></g><g id="Solid"><path d="M439.76 112.84 L439.76 112.84 L439.43 112.79 L439.31 112.44 L447.36 100.99 L447.73 100.99 L448.1 100.99 Z" stroke="rgb(0, 0, 0)" stroke-width="0" fill-rule="evenodd" stroke-linejoin="miter" fill="rgb(0, 0, 0)" shape-rendering="geometricPrecision" /><line x1="438.4" y1="109.74" x2="444.53" y2="101.02" stroke="rgb(0, 0, 0)" stroke-width="0.6" shape-rendering="auto" /></g><g id="Solid"><path d="M448.1 100.99 L448.1 100.99 L447.73 100.99 L447.36 100.99 L442 93.7 L442.24 93.52 L442.48 93.35 Z" stroke="rgb(0, 0, 0)" stroke-width="0" fill-rule="evenodd" stroke-linejoin="miter" fill="rgb(0, 0, 0)" shape-rendering="geometricPrecision" /></g><g id="Solid"><path d="M435.7 90.29 L435.7 90.29 L435.79 90.57 L435.88 90.86 L425.8 94.16 L425.5 93.94 L425.53 93.61 Z" stroke="rgb(0, 0, 0)" stroke-width="0" fill-rule="evenodd" stroke-linejoin="miter" fill="rgb(0, 0, 0)" shape-rendering="geometricPrecision" /></g><g id="Solid"><path d="M439.19 113.03 L439.19 113.03 L439.43 112.79 L439.76 112.84 L444.15 126.2 L443.93 126.5 L443.71 126.8 Z" stroke="rgb(0, 0, 0)" stroke-width="0" fill-rule="evenodd" stroke-linejoin="miter" fill="rgb(0, 0, 0)" shape-rendering="geometricPrecision" /></g><g id="Solid"><path d="M443.71 126.8 L443.71 126.8 L443.93 126.5 L444.15 126.2 L458.36 126.14 L458.19 126.44 L458.02 126.74 Z" stroke="rgb(0, 0, 0)" stroke-width="0" fill-rule="evenodd" stroke-linejoin="miter" fill="rgb(0, 0, 0)" shape-rendering="geometricPrecision" /></g><g id="Solid"><path d="M458.02 126.74 L458.02 126.74 L458.19 126.44 L458.36 126.14 L463.66 135.18 L463.4 135.33 L463.14 135.48 Z" stroke="rgb(0, 0, 0)" stroke-width="0" fill-rule="evenodd" stroke-linejoin="miter" fill="rgb(0, 0, 0)" shape-rendering="geometricPrecision" /></g><g id="Solid"><path d="M400.23 108.35 L400.23 108.35 L400.53 108.52 L400.53 108.87 L388.33 115.98 L388.18 115.72 L388.03 115.46 Z" stroke="rgb(0, 0, 0)" stroke-width="0" fill-rule="evenodd" stroke-linejoin="miter" fill="rgb(0, 0, 0)" shape-rendering="geometricPrecision" /></g><g id="Wedged Hash Begin Bond"><path d="M375.49 108.77 L375.49 108.77 L375.79 108.25 L376.33 108.51 L375.99 109.11 Z" stroke="rgb(0, 0, 0)" stroke-width="0" fill-rule="evenodd" stroke-linejoin="miter" fill="rgb(0, 0, 0)" shape-rendering="geometricPrecision" /><path d="M377.4 110.09 L377.4 110.09 L377.89 109.23 L378.43 109.49 L377.89 110.43 Z" stroke="rgb(0, 0, 0)" stroke-width="0" fill-rule="evenodd" stroke-linejoin="miter" fill="rgb(0, 0, 0)" shape-rendering="geometricPrecision" /><path d="M379.3 111.41 L379.3 111.41 L379.99 110.22 L380.53 110.47 L379.8 111.75 Z" stroke="rgb(0, 0, 0)" stroke-width="0" fill-rule="evenodd" stroke-linejoin="miter" fill="rgb(0, 0, 0)" shape-rendering="geometricPrecision" /><path d="M381.21 112.73 L381.21 112.73 L382.09 111.2 L382.63 111.46 L381.71 113.07 Z" stroke="rgb(0, 0, 0)" stroke-width="0" fill-rule="evenodd" stroke-linejoin="miter" fill="rgb(0, 0, 0)" shape-rendering="geometricPrecision" /><path d="M383.12 114.05 L383.12 114.05 L384.19 112.19 L384.73 112.44 L383.61 114.39 Z" stroke="rgb(0, 0, 0)" stroke-width="0" fill-rule="evenodd" stroke-linejoin="miter" fill="rgb(0, 0, 0)" shape-rendering="geometricPrecision" /><path d="M385.03 115.37 L385.03 115.37 L386.29 113.17 L386.83 113.43 L385.52 115.71 Z" stroke="rgb(0, 0, 0)" stroke-width="0" fill-rule="evenodd" stroke-linejoin="miter" fill="rgb(0, 0, 0)" shape-rendering="geometricPrecision" /><path d="M386.93 116.68 L386.93 116.68 L388.39 114.16 L388.93 114.41 L387.43 117.03 Z" stroke="rgb(0, 0, 0)" stroke-width="0" fill-rule="evenodd" stroke-linejoin="miter" fill="rgb(0, 0, 0)" shape-rendering="geometricPrecision" /></g><g id="Solid"><path d="M375.94 108.73 L375.94 108.73 L375.64 108.51 L375.34 108.29 L375.25 94.31 L375.55 94.09 L375.85 93.87 Z" stroke="rgb(0, 0, 0)" stroke-width="0" fill-rule="evenodd" stroke-linejoin="miter" fill="rgb(0, 0, 0)" shape-rendering="geometricPrecision" /></g><g id="Solid"><path d="M375.85 93.87 L375.85 93.87 L375.55 94.09 L375.25 94.31 L365.92 91.35 L366.02 91.06 L366.11 90.78 Z" stroke="rgb(0, 0, 0)" stroke-width="0" fill-rule="evenodd" stroke-linejoin="miter" fill="rgb(0, 0, 0)" shape-rendering="geometricPrecision" /></g><g id="Solid"><path d="M358.72 93.59 L358.72 93.59 L358.97 93.76 L359.21 93.94 L353.8 101.38 L353.43 101.38 L353.06 101.38 Z" stroke="rgb(0, 0, 0)" stroke-width="0" fill-rule="evenodd" stroke-linejoin="miter" fill="rgb(0, 0, 0)" shape-rendering="geometricPrecision" /></g><g id="Solid"><path d="M353.06 101.38 L353.06 101.38 L353.43 101.38 L353.8 101.38 L359.62 109.34 L359.38 109.52 L359.13 109.69 Z" stroke="rgb(0, 0, 0)" stroke-width="0" fill-rule="evenodd" stroke-linejoin="miter" fill="rgb(0, 0, 0)" shape-rendering="geometricPrecision" /></g><g id="Solid"><path d="M375.34 108.29 L375.34 108.29 L375.64 108.51 L375.94 108.73 L369.2 110.94 L369.11 110.65 L369.02 110.37 Z" stroke="rgb(0, 0, 0)" stroke-width="0" fill-rule="evenodd" stroke-linejoin="miter" fill="rgb(0, 0, 0)" shape-rendering="geometricPrecision" /></g><g id="Solid"><line x1="353.43" y1="102.67" x2="343.29" y2="102.69" stroke="rgb(0, 0, 0)" stroke-width="0.6" shape-rendering="auto" /><path d="M353.78 100.39 L353.78 100.39 L354.22 99.78 L343.29 99.8 L343.29 100.4 Z" stroke="rgb(0, 0, 0)" stroke-width="0" fill-rule="evenodd" stroke-linejoin="miter" fill="rgb(0, 0, 0)" shape-rendering="geometricPrecision" /><path d="M354.22 102.97 L354.22 102.97 L353.78 102.37 L343.29 102.39 L343.29 102.99 Z" stroke="rgb(0, 0, 0)" stroke-width="0" fill-rule="evenodd" stroke-linejoin="miter" fill="rgb(0, 0, 0)" shape-rendering="geometricPrecision" /></g><g><text xml:space="preserve" text-anchor="start" text-rendering="geometricPrecision"><tspan x="477.16" y="141.84" font-family="Times New Roman" font-size="8" fill="rgb(0, 0, 0)">CH</tspan><tspan font-family="Times New Roman" dy="1.78" font-size="6" fill="rgb(0, 0, 0)">3</tspan></text></g><g id="Solid"><path d="M469.09 139.13 L469.09 139.13 L469.09 138.83 L469.09 138.53 L475.91 138.49 L475.91 138.79 L475.91 139.09 Z" stroke="rgb(0, 0, 0)" stroke-width="0" fill-rule="evenodd" stroke-linejoin="miter" fill="rgb(0, 0, 0)" shape-rendering="geometricPrecision" /></g><g><text xml:space="preserve" text-anchor="end" text-rendering="geometricPrecision"><tspan x="461.02" y="154.42" font-family="Times New Roman" font-size="8" fill="rgb(0, 0, 0)">H</tspan><tspan font-family="Times New Roman" dy="1.78" font-size="6" fill="rgb(0, 0, 0)">3</tspan><tspan font-family="Times New Roman" dy="-1.78" font-size="8" fill="rgb(0, 0, 0)">C</tspan></text></g><g id="Solid"><path d="M462.62 143.23 L462.62 143.23 L462.88 143.38 L463.14 143.53 L460.67 147.87 L460.41 147.72 L460.15 147.57 Z" stroke="rgb(0, 0, 0)" stroke-width="0" fill-rule="evenodd" stroke-linejoin="miter" fill="rgb(0, 0, 0)" shape-rendering="geometricPrecision" /></g><g><text xml:space="preserve" text-anchor="start" text-rendering="geometricPrecision"><tspan x="440.74" y="78.8" font-family="Times New Roman" font-size="8" fill="rgb(0, 0, 0)">NO</tspan></text></g><g id="Solid"><path d="M440.7 85.88 L440.7 85.88 L440.41 85.79 L440.13 85.69 L441.88 80.22 L442.17 80.31 L442.45 80.41 Z" stroke="rgb(0, 0, 0)" stroke-width="0" fill-rule="evenodd" stroke-linejoin="miter" fill="rgb(0, 0, 0)" shape-rendering="geometricPrecision" /></g></g></g></svg>