<?xml version="1.0"?><svg xmlns="http://www.w3.org/2000/svg" xmlns:xlink="http://www.w3.org/1999/xlink" viewBox="288.14 58.65 122.86 103.05" preserveAspectRatio="xMidYMid" width="100%" height="100%"><clipPath id="1042"><rect x="0.3" y="0.3" width="539.4" height="719.15" /></clipPath><g id="drawing"><rect x="288.14" y="58.65" width="100%" height="100%" fill="rgb(255, 255, 255)" /><g id="page" clip-path="url(#1042)"><g><text xml:space="preserve" text-anchor="start" text-rendering="geometricPrecision"><tspan x="346.6" y="147.18" font-family="Times New Roman" font-size="8" fill="rgb(0, 0, 0)">N</tspan></text></g><g><text xml:space="preserve" text-anchor="start" text-rendering="geometricPrecision"><tspan x="384.02" y="125.47" font-family="Times New Roman" font-size="8" fill="rgb(0, 0, 0)">O</tspan></text></g><g><text xml:space="preserve" text-anchor="start" text-rendering="geometricPrecision"><tspan x="321.68" y="103.94" font-family="Times New Roman" font-size="8" fill="rgb(0, 0, 0)">O</tspan></text></g><g><text xml:space="preserve" text-anchor="start" text-rendering="geometricPrecision"><tspan x="309.17" y="125.51" font-family="Times New Roman" font-size="8" fill="rgb(0, 0, 0)">O</tspan></text></g><g><text xml:space="preserve" text-anchor="end" text-rendering="geometricPrecision"><tspan x="302.29" y="118.29" font-family="Times New Roman" font-size="8" fill="rgb(0, 0, 0)">H</tspan><tspan font-family="Times New Roman" dy="1.78" font-size="6" fill="rgb(0, 0, 0)">3</tspan><tspan font-family="Times New Roman" dy="-1.78" font-size="8" fill="rgb(0, 0, 0)">C</tspan></text></g><g><text xml:space="preserve" text-anchor="end" text-rendering="geometricPrecision"><tspan x="327.19" y="147.23" font-family="Times New Roman" font-size="8" fill="rgb(0, 0, 0)">H</tspan><tspan font-family="Times New Roman" dy="1.78" font-size="6" fill="rgb(0, 0, 0)">3</tspan><tspan font-family="Times New Roman" dy="-1.78" font-size="8" fill="rgb(0, 0, 0)">C</tspan></text></g><g><text xml:space="preserve" text-anchor="start" text-rendering="geometricPrecision"><tspan x="371.44" y="103.74" font-family="Times New Roman" font-size="8" fill="rgb(0, 0, 0)">O</tspan></text></g><g><text xml:space="preserve" text-anchor="end" text-rendering="geometricPrecision"><tspan x="327.16" y="90.9" font-family="Times New Roman" font-size="8" fill="rgb(0, 0, 0)">O</tspan><tspan font-family="Times New Roman" dy="1.78" font-size="6" fill="rgb(0, 0, 0)">2</tspan><tspan font-family="Times New Roman" dy="-1.78" font-size="8" fill="rgb(0, 0, 0)">N</tspan></text></g><g><text xml:space="preserve" text-anchor="start" text-rendering="geometricPrecision"><tspan x="371.63" y="147.11" font-family="Times New Roman" font-size="8" fill="rgb(0, 0, 0)">CH</tspan><tspan font-family="Times New Roman" dy="1.78" font-size="6" fill="rgb(0, 0, 0)">3</tspan></text></g><g><text xml:space="preserve" text-anchor="start" text-rendering="geometricPrecision"><tspan x="396.71" y="118.27" font-family="Times New Roman" font-size="8" fill="rgb(0, 0, 0)">CH</tspan><tspan font-family="Times New Roman" dy="1.78" font-size="6" fill="rgb(0, 0, 0)">3</tspan></text></g><g id="Solid"><path d="M336.71 122.66 L336.71 122.66 L337.01 122.49 L337.31 122.66 L337.28 136.77 L336.98 136.94 L336.68 136.77 Z" stroke="rgb(0, 0, 0)" stroke-width="0" fill-rule="evenodd" stroke-linejoin="miter" fill="rgb(0, 0, 0)" shape-rendering="geometricPrecision" /><line x1="334.41" y1="123.99" x2="334.38" y2="135.44" stroke="rgb(0, 0, 0)" stroke-width="0.6" shape-rendering="auto" /></g><g id="Solid"><path d="M336.98 137.29 L336.98 137.29 L336.98 136.94 L337.28 136.77 L346.37 141.96 L346.22 142.22 L346.07 142.48 Z" stroke="rgb(0, 0, 0)" stroke-width="0" fill-rule="evenodd" stroke-linejoin="miter" fill="rgb(0, 0, 0)" shape-rendering="geometricPrecision" /></g><g id="Solid"><path d="M353.13 142.34 L353.13 142.34 L352.97 142.08 L352.82 141.82 L361.58 136.73 L361.88 136.9 L361.88 137.25 Z" stroke="rgb(0, 0, 0)" stroke-width="0" fill-rule="evenodd" stroke-linejoin="miter" fill="rgb(0, 0, 0)" shape-rendering="geometricPrecision" /></g><g id="Solid"><path d="M361.88 122.05 L361.88 122.05 L361.88 122.4 L361.58 122.57 L349.46 115.68 L349.46 115.33 L349.76 115.15 Z" stroke="rgb(0, 0, 0)" stroke-width="0" fill-rule="evenodd" stroke-linejoin="miter" fill="rgb(0, 0, 0)" shape-rendering="geometricPrecision" /></g><g id="Solid"><path d="M349.16 115.16 L349.16 115.16 L349.46 115.33 L349.46 115.68 L337.31 122.66 L337.01 122.49 L337.01 122.14 Z" stroke="rgb(0, 0, 0)" stroke-width="0" fill-rule="evenodd" stroke-linejoin="miter" fill="rgb(0, 0, 0)" shape-rendering="geometricPrecision" /></g><g id="Solid"><path d="M361.58 122.57 L361.58 122.57 L361.88 122.4 L362.18 122.57 L362.18 136.73 L361.88 136.9 L361.58 136.73 Z" stroke="rgb(0, 0, 0)" stroke-width="0" fill-rule="evenodd" stroke-linejoin="miter" fill="rgb(0, 0, 0)" shape-rendering="geometricPrecision" /><line x1="364.49" y1="123.89" x2="364.49" y2="135.39" stroke="rgb(0, 0, 0)" stroke-width="0.6" shape-rendering="auto" /></g><g id="Solid"><path d="M383.48 120.04 L383.48 120.04 L383.33 120.3 L383.18 120.56 L374.36 115.42 L374.36 115.07 L374.36 114.72 Z" stroke="rgb(0, 0, 0)" stroke-width="0" fill-rule="evenodd" stroke-linejoin="miter" fill="rgb(0, 0, 0)" shape-rendering="geometricPrecision" /></g><g id="Solid"><path d="M374.36 114.72 L374.36 114.72 L374.36 115.07 L374.36 115.42 L362.18 122.57 L361.88 122.4 L361.88 122.05 Z" stroke="rgb(0, 0, 0)" stroke-width="0" fill-rule="evenodd" stroke-linejoin="miter" fill="rgb(0, 0, 0)" shape-rendering="geometricPrecision" /></g><g id="Solid"><path d="M337.01 122.14 L337.01 122.14 L337.01 122.49 L336.71 122.66 L324.55 115.61 L324.55 115.26 L324.55 114.91 Z" stroke="rgb(0, 0, 0)" stroke-width="0" fill-rule="evenodd" stroke-linejoin="miter" fill="rgb(0, 0, 0)" shape-rendering="geometricPrecision" /></g><g id="Solid"><line x1="323.25" y1="115.26" x2="323.27" y2="105.69" stroke="rgb(0, 0, 0)" stroke-width="0.6" shape-rendering="auto" /><path d="M325.55 115.49 L325.55 115.49 L326.14 115.84 L326.17 105.69 L325.57 105.69 Z" stroke="rgb(0, 0, 0)" stroke-width="0" fill-rule="evenodd" stroke-linejoin="miter" fill="rgb(0, 0, 0)" shape-rendering="geometricPrecision" /><path d="M322.95 115.83 L322.95 115.83 L323.55 115.49 L323.57 105.69 L322.97 105.69 Z" stroke="rgb(0, 0, 0)" stroke-width="0" fill-rule="evenodd" stroke-linejoin="miter" fill="rgb(0, 0, 0)" shape-rendering="geometricPrecision" /></g><g id="Solid"><path d="M324.55 114.91 L324.55 114.91 L324.55 115.26 L324.55 115.61 L315.93 120.57 L315.78 120.31 L315.63 120.05 Z" stroke="rgb(0, 0, 0)" stroke-width="0" fill-rule="evenodd" stroke-linejoin="miter" fill="rgb(0, 0, 0)" shape-rendering="geometricPrecision" /></g><g id="Solid"><path d="M308.67 120.13 L308.67 120.13 L308.52 120.39 L308.37 120.64 L302.9 117.47 L303.05 117.21 L303.2 116.95 Z" stroke="rgb(0, 0, 0)" stroke-width="0" fill-rule="evenodd" stroke-linejoin="miter" fill="rgb(0, 0, 0)" shape-rendering="geometricPrecision" /></g><g id="Solid"><path d="M336.68 136.77 L336.68 136.77 L336.98 136.94 L336.98 137.29 L328.33 142.3 L328.18 142.04 L328.03 141.78 Z" stroke="rgb(0, 0, 0)" stroke-width="0" fill-rule="evenodd" stroke-linejoin="miter" fill="rgb(0, 0, 0)" shape-rendering="geometricPrecision" /></g><g id="Solid"><line x1="373.06" y1="115.07" x2="373.05" y2="105.49" stroke="rgb(0, 0, 0)" stroke-width="0.6" shape-rendering="auto" /><path d="M375.36 115.3 L375.36 115.3 L375.96 115.65 L375.94 105.49 L375.34 105.49 Z" stroke="rgb(0, 0, 0)" stroke-width="0" fill-rule="evenodd" stroke-linejoin="miter" fill="rgb(0, 0, 0)" shape-rendering="geometricPrecision" /><path d="M372.76 115.66 L372.76 115.66 L373.36 115.31 L373.35 105.49 L372.75 105.49 Z" stroke="rgb(0, 0, 0)" stroke-width="0" fill-rule="evenodd" stroke-linejoin="miter" fill="rgb(0, 0, 0)" shape-rendering="geometricPrecision" /></g><g id="Solid"><path d="M336.45 65.99 L336.45 65.99 L336.75 66.16 L337.05 66.33 L337.02 80.45 L336.72 80.62 L336.42 80.45 Z" stroke="rgb(0, 0, 0)" stroke-width="0" fill-rule="evenodd" stroke-linejoin="miter" fill="rgb(0, 0, 0)" shape-rendering="geometricPrecision" /><line x1="339.35" y1="67.67" x2="339.33" y2="79.11" stroke="rgb(0, 0, 0)" stroke-width="0.6" shape-rendering="auto" /></g><g id="Solid"><path d="M336.72 80.97 L336.72 80.97 L336.72 80.62 L337.02 80.45 L349.24 87.42 L349.24 87.77 L348.94 87.94 Z" stroke="rgb(0, 0, 0)" stroke-width="0" fill-rule="evenodd" stroke-linejoin="miter" fill="rgb(0, 0, 0)" shape-rendering="geometricPrecision" /></g><g id="Solid"><path d="M349.54 87.94 L349.54 87.94 L349.24 87.77 L349.24 87.42 L361.39 80.43 L361.69 80.6 L361.99 80.77 Z" stroke="rgb(0, 0, 0)" stroke-width="0" fill-rule="evenodd" stroke-linejoin="miter" fill="rgb(0, 0, 0)" shape-rendering="geometricPrecision" /><line x1="349.23" y1="84.79" x2="359.1" y2="79.11" stroke="rgb(0, 0, 0)" stroke-width="0.6" shape-rendering="auto" /></g><g id="Solid"><path d="M361.99 80.77 L361.99 80.77 L361.69 80.6 L361.39 80.43 L361.32 66.24 L361.62 66.07 L361.92 65.9 Z" stroke="rgb(0, 0, 0)" stroke-width="0" fill-rule="evenodd" stroke-linejoin="miter" fill="rgb(0, 0, 0)" shape-rendering="geometricPrecision" /></g><g id="Solid"><path d="M361.92 65.9 L361.92 65.9 L361.62 66.07 L361.32 66.24 L349.2 59.35 L349.2 59 L349.2 58.65 Z" stroke="rgb(0, 0, 0)" stroke-width="0" fill-rule="evenodd" stroke-linejoin="miter" fill="rgb(0, 0, 0)" shape-rendering="geometricPrecision" /><line x1="359.05" y1="67.57" x2="349.21" y2="61.96" stroke="rgb(0, 0, 0)" stroke-width="0.6" shape-rendering="auto" /></g><g id="Solid"><path d="M349.2 58.65 L349.2 58.65 L349.2 59 L349.2 59.35 L337.05 66.33 L336.75 66.16 L336.45 65.99 Z" stroke="rgb(0, 0, 0)" stroke-width="0" fill-rule="evenodd" stroke-linejoin="miter" fill="rgb(0, 0, 0)" shape-rendering="geometricPrecision" /></g><g id="Solid"><path d="M336.42 80.45 L336.42 80.45 L336.72 80.62 L336.72 80.97 L327.93 86.06 L327.78 85.8 L327.63 85.54 Z" stroke="rgb(0, 0, 0)" stroke-width="0" fill-rule="evenodd" stroke-linejoin="miter" fill="rgb(0, 0, 0)" shape-rendering="geometricPrecision" /></g><g id="Solid"><path d="M348.94 87.94 L348.94 87.94 L349.24 87.77 L349.54 87.94 L349.76 115.15 L349.46 115.33 L349.16 115.16 Z" stroke="rgb(0, 0, 0)" stroke-width="0" fill-rule="evenodd" stroke-linejoin="miter" fill="rgb(0, 0, 0)" shape-rendering="geometricPrecision" /></g><g id="Solid"><path d="M361.88 137.25 L361.88 137.25 L361.88 136.9 L362.18 136.73 L371.07 141.84 L370.92 142.1 L370.77 142.36 Z" stroke="rgb(0, 0, 0)" stroke-width="0" fill-rule="evenodd" stroke-linejoin="miter" fill="rgb(0, 0, 0)" shape-rendering="geometricPrecision" /></g><g id="Solid"><path d="M390.73 120.55 L390.73 120.55 L390.58 120.29 L390.43 120.03 L395.57 117.06 L395.72 117.32 L395.87 117.58 Z" stroke="rgb(0, 0, 0)" stroke-width="0" fill-rule="evenodd" stroke-linejoin="miter" fill="rgb(0, 0, 0)" shape-rendering="geometricPrecision" /></g><g><text xml:space="preserve" text-anchor="start" text-rendering="geometricPrecision"><tspan x="346.65" y="161.58" font-family="Times New Roman" font-size="8" fill="rgb(0, 0, 0)">NO</tspan></text></g><g id="Solid"><path d="M349.22 148.89 L349.22 148.89 L349.52 148.89 L349.82 148.89 L349.84 154.61 L349.54 154.61 L349.24 154.61 Z" stroke="rgb(0, 0, 0)" stroke-width="0" fill-rule="evenodd" stroke-linejoin="miter" fill="rgb(0, 0, 0)" shape-rendering="geometricPrecision" /></g></g></g></svg>